<svg width="127" height="120" viewBox="0 0 127 120" fill="none" xmlns="http://www.w3.org/2000/svg">
<g id="Frame 15">
<g id="Frame 19">
<path id="Ellipse 6" d="M107.5 63C107.5 87.3005 87.8005 107 63.5 107C39.1995 107 19.5 87.3005 19.5 63C19.5 38.6995 39.1995 19 63.5 19C87.8005 19 107.5 38.6995 107.5 63Z" fill="#FFFFFF" stroke="black" stroke-width="8"/>
<path id="Ellipse 2" d="M69.1312 90.476C64.791 100.701 52.9836 105.471 42.7587 101.131C32.5339 96.791 27.7634 84.9836 32.1036 74.7587C36.4438 64.5339 48.2511 59.7634 58.476 64.1036C68.7009 68.4438 73.4714 80.2511 69.1312 90.476Z" stroke="black" stroke-width="8"/>
<path id="Vector 1" d="M68 92.8495L94 33" stroke="black" stroke-width="8"/>
<path id="Ellipse 4" d="M67 82.5C67 91.6127 59.6127 99 50.5 99C41.3873 99 34 91.6127 34 82.5C34 73.3873 41.3873 66 50.5 66C59.6127 66 67 73.3873 67 82.5Z" fill="#00B2FF"/>
</g>
</g>
</svg>
