<svg width="1200" height="1200" viewBox="0 0 1200 1200" fill="none" xmlns="http://www.w3.org/2000/svg">
<g id="Cute Avatar">
<mask id="mask0_209_554" style="mask-type:alpha" maskUnits="userSpaceOnUse" x="0" y="0" width="1197" height="1197">
<circle id="Ellipse 1" cx="598.033" cy="598.033" r="595.033" fill="#D9D9D9" stroke="black" stroke-width="6"/>
</mask>
<g mask="url(#mask0_209_554)">
<g id="Bg">
<g id="Bg_2">
<path id="Vector" d="M1130.2 330.588C1368.24 789.02 949.804 1306.27 450.98 1180C227.059 1124.31 47.0589 930.196 9.80403 702.353C-32.5489 475.686 69.804 232.157 261.177 103.922C523.53 -76.4706 887.059 -16.4706 1074.9 241.569C1076.08 242.745 1075.69 244.706 1074.12 245.882C1072.94 247.059 1070.98 246.667 1069.8 245.098C1043.92 211.765 1014.51 181.569 982.353 154.51C929.412 109.412 867.451 74.1177 801.961 50.1961C468.628 -70.5882 102.745 130.196 29.804 478.824C-52.5489 869.412 279.608 1229.02 675.686 1175.29C981.177 1136.86 1208.24 854.902 1183.14 548.235C1177.65 474.118 1158.04 400.784 1125.49 333.333C1124.71 332.157 1125.49 330.588 1126.67 329.804C1127.84 329.02 1129.41 329.412 1130.2 330.588Z" fill="white"/>
</g>
</g>
<g id="Head">
<g id="Head_4_copy">
<g id="Group">
<g id="Neck_1_5_">
<path id="Vector_2" d="M717.644 963.137C709.409 1003.53 656.076 1027.84 566.272 991.373C472.939 953.726 432.546 863.922 422.35 837.255C477.644 733.726 439.213 661.961 439.213 661.961C566.664 650.981 678.037 800 678.037 800L695.292 873.726C696.86 880 699.997 885.49 704.703 889.412C712.939 903.922 722.743 937.255 717.644 963.137Z" fill="#E8E8E8"/>
<g id="Group_2">
<path id="Vector_3" d="M420.391 838.432C427.842 827.059 432.548 813.726 435.685 800.785C441.568 773.726 443.529 746.275 443.921 718.824V708.628C442.744 698.432 439.215 687.843 435.293 678.432C430.195 665.883 448.627 658.039 454.509 670.588C455.293 672.157 455.293 674.902 455.293 676.471C456.47 729.804 458.823 798.432 425.097 842.745C422.744 845.098 418.038 841.569 420.391 838.432Z" fill="black"/>
</g>
<g id="Group_3">
<path id="Vector_4" d="M682.351 799.216C688.233 802.746 690.194 807.452 690.978 812.157C693.331 821.569 692.547 831.765 694.9 841.569C696.861 850.981 702.743 860.001 704.312 869.804C706.272 880.001 712.155 901.569 714.508 912.157C715.292 914.51 713.723 917.255 710.978 917.648C709.41 918.04 708.233 917.648 707.057 916.863C701.959 912.55 699.606 908.236 696.469 902.746C691.371 893.334 687.841 884.706 684.704 874.118C681.959 864.706 683.135 854.51 680.782 844.706C678.821 835.295 673.331 826.275 671.37 816.471C670.194 811.765 669.802 806.667 673.331 800.785C675.684 798.432 679.606 797.648 682.351 799.216Z" fill="black"/>
</g>
<path id="Vector_5" d="M710.587 902.745C635.685 898.824 574.509 875.294 514.901 769.02C565.097 813.334 624.313 830.196 686.666 838.039L694.901 874.118C696.47 880.392 705.882 898.824 710.587 902.745Z" fill="black"/>
<g id="Group_4">
<path id="Vector_6" d="M707.452 888.236C720.785 913.334 728.628 944.706 720.393 972.549C714.118 992.157 696.079 1006.67 676.471 1012.16C630.981 1024.31 578.432 1005.1 538.04 983.53C488.236 955.687 451.373 909.02 427.844 858.04C426.275 854.118 431.765 850.981 434.118 854.902C442.354 871.373 451.765 887.451 462.354 901.961C472.942 916.863 485.099 930.589 498.824 942.745C538.824 978.824 592.942 1001.18 647.06 1001.18C702.746 999.608 723.922 970.196 710.981 916.079C709.02 907.451 705.883 898.432 701.569 890.981C699.216 887.843 705.099 884.314 707.452 888.236Z" fill="black"/>
</g>
</g>
<path id="Vector_7" d="M859.215 417.255C866.274 450.196 869.803 476.863 850.587 564.706C831.764 652.157 877.646 670.196 769.019 810.196C724.705 867.451 617.254 851.373 530.195 792.157C500.783 772.157 488.234 720.785 466.274 684.314C449.019 655.687 441.176 685.49 418.431 660.785C387.45 627.059 350.195 559.216 368.627 439.216C398.431 244.706 552.548 221.961 666.666 243.53C781.568 265.49 840.391 330.588 859.215 417.255Z" fill="white"/>
<g id="Group_5">
<path id="Vector_8" d="M438.038 695.686C429.019 680.392 417.254 667.059 406.274 652.941C395.685 638.432 387.058 622.353 379.999 605.883C333.333 491.373 351.372 330.196 465.882 262.745C513.333 235.294 570.587 228.628 623.921 232.941C738.038 241.177 842.744 293.726 867.45 414.51C880.784 467.843 862.744 522.745 852.548 574.902C847.842 600.785 851.764 627.451 851.372 654.118C850.98 681.177 843.529 708.236 833.333 733.334C827.058 750.588 816.078 765.883 804.705 780C785.882 802.745 767.058 825.883 743.136 843.53C737.646 847.451 727.842 849.412 721.176 850.196C702.744 852.941 684.705 853.726 666.274 852.549C594.117 849.412 516.862 814.51 487.842 744.706C486.666 741.961 490.587 740 492.156 742.353C529.803 801.961 598.823 831.373 667.45 835.294C688.627 836.471 710.195 836.079 730.98 831.765C741.176 826.667 750.195 817.647 758.823 809.412C779.999 788.235 801.568 765.49 816.862 739.608C835.293 704.706 845.489 666.667 842.352 627.059C841.568 609.412 841.176 590.981 844.705 573.334C847.842 555.687 851.764 538.824 854.117 520.785C856.47 503.53 857.646 485.883 857.646 468.628C855.685 418.039 839.215 365.883 807.058 326.667C736.078 238.432 568.235 215.294 473.725 275.687C414.117 312.549 386.274 381.569 377.254 448.628C363.529 529.02 367.45 608.236 431.372 666.667L450.195 686.275C457.646 694.902 444.313 705.098 438.038 695.686Z" fill="black"/>
</g>
<path id="Vector_9" d="M484.311 570.98C484.311 570.98 472.155 512.157 414.9 519.215C365.488 525.49 348.233 643.921 460.39 676.863" fill="white"/>
<g id="Group_6">
<path id="Vector_10" d="M455.293 625.49C446.274 620.392 439.999 611.765 439.607 601.177C439.999 593.334 441.176 584.314 439.215 576.471C438.038 569.02 430.195 567.059 424.313 567.451C418.038 568.628 414.117 576.471 412.94 582.745C412.94 583.138 412.548 584.314 412.548 584.706C412.156 586.667 409.019 586.667 408.235 584.706C403.137 569.412 414.509 552.549 430.98 554.51C454.117 556.079 457.254 580.392 452.94 598.824C450.587 606.667 453.725 613.726 458.038 620.392L458.823 621.569C460.784 623.922 457.646 627.059 455.293 625.49Z" fill="black"/>
</g>
<g id="Group_7">
<path id="Vector_11" d="M769.018 529.412C774.9 557.255 785.881 583.137 799.606 607.451C811.763 637.255 780.39 665.49 752.547 664.314C749.41 664.314 749.018 660 751.763 659.216C769.41 653.726 785.488 641.961 788.234 623.922C789.41 618.431 787.841 613.726 785.096 609.02C772.155 584.706 764.312 556.863 766.273 529.412C766.273 527.451 769.018 527.451 769.018 529.412Z" fill="black"/>
</g>
<g id="Group_8">
<path id="Vector_12" d="M482.352 571.373C473.332 548.236 453.725 526.275 427.45 526.667C425.097 526.275 421.176 527.059 418.823 527.059C412.156 527.451 406.666 529.804 401.568 534.51C376.47 559.608 380.783 603.922 401.176 631.765C408.234 641.569 417.254 650.196 427.45 657.255C437.646 664.314 449.019 669.804 461.176 674.51C463.921 675.294 462.744 679.608 459.999 679.216C433.725 673.726 408.627 660.785 391.372 639.216C364.705 607.059 359.215 553.334 390.979 521.961C398.038 515.687 407.842 510.981 417.646 510.981C420.783 510.981 425.489 510.196 428.627 510.981C445.097 511.765 460.783 520 470.979 532.941C479.999 543.922 485.097 557.255 486.666 570.589C486.666 572.941 483.136 573.726 482.352 571.373Z" fill="black"/>
</g>
</g>
</g>
</g>
<g id="Mouth">
<g id="Normal_Smile_2_">
<g id="Group_9">
<path id="Vector_13" d="M739.216 703.529C714.118 727.451 666.667 708.235 654.118 679.216C652.549 675.686 656.471 672.549 659.608 674.118C666.275 677.647 672.157 681.176 678.432 683.921C696.471 692.157 715.294 698.823 735.294 696.863C739.216 696.078 741.961 700.784 739.216 703.529Z" fill="black"/>
</g>
</g>
</g>
<g id="Eyes">
<g id="normal_1_">
<path id="Vector_14" d="M622.746 569.412C613.334 569.02 606.275 561.177 607.06 551.765L607.452 540.784C607.844 531.373 615.687 524.314 625.099 525.098C634.511 525.49 641.57 533.333 640.785 542.745L640.393 553.726C640.001 562.745 632.158 569.804 622.746 569.412Z" fill="black"/>
<path id="Vector_15" d="M787.843 575.295C779.215 574.902 772.549 567.452 772.941 558.824L773.333 548.628C773.725 540.001 781.176 533.334 789.803 533.726C798.431 534.118 805.098 541.569 804.705 550.197L804.313 560.393C803.921 569.02 796.47 575.687 787.843 575.295Z" fill="black"/>
<g id="Group_10">
<path id="Vector_16" d="M658.04 548.235C645.099 539.608 630.981 533.726 615.295 536.863C610.197 537.647 605.099 539.216 601.962 542.745C600.785 544.314 598.04 543.922 598.04 541.569C598.432 533.726 605.099 528.628 611.373 525.49C623.53 519.216 640.393 520.392 651.373 528.628C655.295 530.981 668.628 545.49 661.569 548.628C660.001 549.412 659.217 549.02 658.04 548.235Z" fill="black"/>
</g>
<g id="Group_11">
<path id="Vector_17" d="M770.197 550.196C770.197 533.726 790.589 527.843 803.138 533.726C810.197 536.863 815.295 543.137 817.256 550.588C818.04 552.941 814.511 554.902 812.942 552.941C806.275 545.098 794.903 541.177 785.883 545.882C783.138 547.451 782.746 548.628 781.962 550.196C781.962 558.039 770.589 557.647 770.197 550.196Z" fill="black"/>
</g>
<path id="Vector_18" d="M676.864 483.53C685.099 486.275 693.334 478.824 691.766 469.804C690.981 465.098 689.02 460.392 685.099 456.863C673.334 446.275 624.707 436.863 595.295 450.588C569.413 463.137 639.217 470.981 676.864 483.53Z" fill="black"/>
<path id="Vector_19" d="M794.12 489.804C787.453 492.157 780.394 485.098 781.571 476.863C781.963 472.549 783.532 468.236 786.669 465.098C796.081 455.686 828.237 448.236 848.63 462.745C866.277 474.902 824.708 478.432 794.12 489.804Z" fill="black"/>
</g>
</g>
<g id="Hair">
<g id="style_8_1_">
<mask id="path-21-inside-1_209_554" fill="white">
<path d="M890.98 357.255C917.647 334.117 956.863 299.215 916.47 250.588C876.078 201.96 801.568 220.784 801.568 220.784C801.568 220.784 817.255 176.078 773.725 160C721.176 140.784 572.157 198.823 572.157 198.823C561.176 198.431 550.588 198.039 540.784 198.039C412.157 195.294 374.902 276.47 373.333 349.411C373.333 349.411 329.804 363.921 318.823 433.333C315.294 455.686 311.765 484.313 320.392 518.823C343.529 612.941 405.882 678.431 445.49 711.764C460.392 700.784 434.118 685.49 436.078 667.451C350.98 625.882 369.412 525.098 414.902 519.215C449.804 514.902 468.235 535.294 476.863 551.764C480.392 556.47 433.333 294.117 704.706 380C758.431 396.862 813.725 411.764 851.372 384.706C855.686 392.941 858.431 402.745 859.216 417.255C859.216 417.255 924.706 391.764 914.902 365.098C911.765 356.078 890.98 357.255 890.98 357.255Z"/>
</mask>
<path d="M890.98 357.255C917.647 334.117 956.863 299.215 916.47 250.588C876.078 201.96 801.568 220.784 801.568 220.784C801.568 220.784 817.255 176.078 773.725 160C721.176 140.784 572.157 198.823 572.157 198.823C561.176 198.431 550.588 198.039 540.784 198.039C412.157 195.294 374.902 276.47 373.333 349.411C373.333 349.411 329.804 363.921 318.823 433.333C315.294 455.686 311.765 484.313 320.392 518.823C343.529 612.941 405.882 678.431 445.49 711.764C460.392 700.784 434.118 685.49 436.078 667.451C350.98 625.882 369.412 525.098 414.902 519.215C449.804 514.902 468.235 535.294 476.863 551.764C480.392 556.47 433.333 294.117 704.706 380C758.431 396.862 813.725 411.764 851.372 384.706C855.686 392.941 858.431 402.745 859.216 417.255C859.216 417.255 924.706 391.764 914.902 365.098C911.765 356.078 890.98 357.255 890.98 357.255Z" fill="black" stroke="white" stroke-width="28" mask="url(#path-21-inside-1_209_554)"/>
</g>
</g>
<g id="Accesories">
<g id="Rounded_Glasses_1_">
<g id="Vector_20" style="mix-blend-mode:darken">
<path d="M791.766 620C791.766 620 796.472 646.667 827.452 660C835.296 663.138 843.531 658.04 843.531 649.412C843.139 649.412 793.727 623.138 791.766 620Z" fill="#E8E8E8"/>
</g>
<path id="Vector_21" d="M549.413 620C549.413 620 563.923 652.942 607.452 660.785C650.982 669.02 690.59 637.647 709.021 585.098C709.021 585.098 694.119 633.726 634.511 642.745C575.688 652.549 549.413 620 549.413 620Z" fill="#E8E8E8"/>
<g id="Vector_22" filter="url(#filter0_i_209_554)">
<path d="M717.65 546.667C716.474 602.746 671.376 647.844 616.866 647.844C562.356 647.844 518.827 602.746 518.827 546.667C519.219 490.197 564.317 443.922 619.611 443.922C674.905 443.922 719.219 490.197 717.65 546.667Z" stroke="black" stroke-width="3" stroke-miterlimit="10" stroke-linecap="round" stroke-linejoin="round"/>
</g>
<g id="Vector_23" filter="url(#filter1_i_209_554)">
<path d="M771.374 533.726C777.649 483.138 810.59 443.53 849.413 443.53C891.374 443.53 923.531 489.804 921.178 546.275C918.825 602.353 883.531 647.451 842.354 647.451C827.06 647.451 813.335 641.569 801.962 630.981" stroke="black" stroke-width="3" stroke-miterlimit="10" stroke-linecap="round" stroke-linejoin="round"/>
</g>
<path id="Vector_24" d="M520.001 535.687H464.315" stroke="black" stroke-width="3" stroke-miterlimit="10" stroke-linecap="round" stroke-linejoin="round"/>
<path id="Vector_25" d="M718.041 535.687C718.041 535.687 764.707 517.648 770.59 535.687" stroke="black" stroke-width="3" stroke-miterlimit="10" stroke-linecap="round" stroke-linejoin="round"/>
</g>
</g>
</g>
</g>
<defs>
<filter id="filter0_i_209_554" x="517.327" y="442.422" width="201.864" height="210.922" filterUnits="userSpaceOnUse" color-interpolation-filters="sRGB">
<feFlood flood-opacity="0" result="BackgroundImageFix"/>
<feBlend mode="normal" in="SourceGraphic" in2="BackgroundImageFix" result="shape"/>
<feColorMatrix in="SourceAlpha" type="matrix" values="0 0 0 0 0 0 0 0 0 0 0 0 0 0 0 0 0 0 127 0" result="hardAlpha"/>
<feOffset dy="4"/>
<feGaussianBlur stdDeviation="2"/>
<feComposite in2="hardAlpha" operator="arithmetic" k2="-1" k3="1"/>
<feColorMatrix type="matrix" values="0 0 0 0 1 0 0 0 0 1 0 0 0 0 1 0 0 0 1 0"/>
<feBlend mode="normal" in2="shape" result="effect1_innerShadow_209_554"/>
</filter>
<filter id="filter1_i_209_554" x="769.874" y="442.03" width="152.926" height="210.922" filterUnits="userSpaceOnUse" color-interpolation-filters="sRGB">
<feFlood flood-opacity="0" result="BackgroundImageFix"/>
<feBlend mode="normal" in="SourceGraphic" in2="BackgroundImageFix" result="shape"/>
<feColorMatrix in="SourceAlpha" type="matrix" values="0 0 0 0 0 0 0 0 0 0 0 0 0 0 0 0 0 0 127 0" result="hardAlpha"/>
<feOffset dy="4"/>
<feGaussianBlur stdDeviation="2"/>
<feComposite in2="hardAlpha" operator="arithmetic" k2="-1" k3="1"/>
<feColorMatrix type="matrix" values="0 0 0 0 1 0 0 0 0 1 0 0 0 0 1 0 0 0 1 0"/>
<feBlend mode="normal" in2="shape" result="effect1_innerShadow_209_554"/>
</filter>
</defs>
</svg>
